<svg width="41" height="40" viewBox="0 0 41 40" fill="currentColor" xmlns="http://www.w3.org/2000/svg">
<path fill-rule="evenodd" clip-rule="evenodd" d="M7.16602 13.3333C7.16602 5.96954 13.1356 0 20.4993 0C27.8631 0 33.8327 5.96954 33.8327 13.3333V26.6667C33.8327 34.0305 27.8631 40 20.4993 40C13.1356 40 7.16602 34.0305 7.16602 26.6667V13.3333ZM27.166 26.6667C27.166 30.3486 24.1812 33.3333 20.4993 33.3333C16.8174 33.3333 13.8327 30.3486 13.8327 26.6667C13.8327 22.9848 16.8174 20 20.4993 20C24.1812 20 27.166 22.9848 27.166 26.6667ZM14.666 19.1667C16.0467 19.1667 17.166 18.0474 17.166 16.6667C17.166 15.286 16.0467 14.1667 14.666 14.1667C13.2853 14.1667 12.166 15.286 12.166 16.6667C12.166 18.0474 13.2853 19.1667 14.666 19.1667Z" fill="currentColor"/>
</svg>
