<svg width="25" height="24" viewBox="0 0 25 24" fill="currentColor" xmlns="http://www.w3.org/2000/svg">
<path d="M6.75 20C6.2 20 5.72917 19.8042 5.3375 19.4125C4.94583 19.0208 4.75 18.55 4.75 18V11C4.75 10.45 4.94583 9.97917 5.3375 9.5875C5.72917 9.19583 6.2 9 6.75 9C7.3 9 7.77083 9.19583 8.1625 9.5875C8.55417 9.97917 8.75 10.45 8.75 11V18C8.75 18.55 8.55417 19.0208 8.1625 19.4125C7.77083 19.8042 7.3 20 6.75 20ZM12.75 20C12.2 20 11.7292 19.8042 11.3375 19.4125C10.9458 19.0208 10.75 18.55 10.75 18V6C10.75 5.45 10.9458 4.97917 11.3375 4.5875C11.7292 4.19583 12.2 4 12.75 4C13.3 4 13.7708 4.19583 14.1625 4.5875C14.5542 4.97917 14.75 5.45 14.75 6V18C14.75 18.55 14.5542 19.0208 14.1625 19.4125C13.7708 19.8042 13.3 20 12.75 20ZM18.75 20C18.2 20 17.7292 19.8042 17.3375 19.4125C16.9458 19.0208 16.75 18.55 16.75 18V15C16.75 14.45 16.9458 13.9792 17.3375 13.5875C17.7292 13.1958 18.2 13 18.75 13C19.3 13 19.7708 13.1958 20.1625 13.5875C20.5542 13.9792 20.75 14.45 20.75 15V18C20.75 18.55 20.5542 19.0208 20.1625 19.4125C19.7708 19.8042 19.3 20 18.75 20Z" fill="currentColor"/>
</svg>
