<svg width="25" height="24" viewBox="0 0 25 24" fill="none" xmlns="http://www.w3.org/2000/svg">
<path fill-rule="evenodd" clip-rule="evenodd" d="M4.75 9C4.75 4.58172 8.33172 1 12.75 1C17.1683 1 20.75 4.58172 20.75 9V15C20.75 19.4183 17.1683 23 12.75 23C8.33172 23 4.75 19.4183 4.75 15V9ZM16.75 15C16.75 17.2091 14.9591 19 12.75 19C10.5409 19 8.75 17.2091 8.75 15C8.75 12.7909 10.5409 11 12.75 11C14.9591 11 16.75 12.7909 16.75 15ZM9 10.5C9.69036 10.5 10.25 9.94036 10.25 9.25C10.25 8.55964 9.69036 8 9 8C8.30964 8 7.75 8.55964 7.75 9.25C7.75 9.94036 8.30964 10.5 9 10.5Z" fill="currentColor"/>
</svg>
