<svg width="42" height="39" viewBox="0 0 42 39" fill="currentColor" xmlns="http://www.w3.org/2000/svg">
<path d="M22.6 20.5V12.5C22.6 12.0666 22.4583 11.7083 22.175 11.425C21.8916 11.1416 21.5333 11 21.1 11C20.6666 11 20.3083 11.1416 20.025 11.425C19.7416 11.7083 19.6 12.0666 19.6 12.5V21.1C19.6 21.3 19.6333 21.4833 19.7 21.65C19.7666 21.8166 19.8833 21.9833 20.05 22.15L25.95 28.05C26.25 28.35 26.6 28.5 27 28.5C27.4 28.5 27.75 28.35 28.05 28.05C28.35 27.75 28.5 27.4 28.5 27C28.5 26.6 28.35 26.25 28.05 25.95L22.6 20.5ZM20.95 38.9C18.4833 38.9 16.1583 38.4333 13.975 37.5C11.7916 36.5666 9.89164 35.2833 8.27497 33.65C6.65831 32.0166 5.37497 30.1166 4.42497 27.95C3.47497 25.7833 2.99997 23.45 2.99997 20.95C2.99997 18.4833 3.47497 16.1583 4.42497 13.975C5.37497 11.7916 6.65831 9.8833 8.27497 8.24997C9.89164 6.61664 11.7916 5.3333 13.975 4.39997C16.1583 3.46664 18.4833 2.99997 20.95 2.99997C23.4166 2.99997 25.7416 3.46664 27.925 4.39997C30.1083 5.3333 32.0166 6.61664 33.65 8.24997C35.2833 9.8833 36.5666 11.7916 37.5 13.975C38.4333 16.1583 38.9 18.4833 38.9 20.95C38.9 23.45 38.4333 25.7833 37.5 27.95C36.5666 30.1166 35.2833 32.0166 33.65 33.65C32.0166 35.2833 30.1083 36.5666 27.925 37.5C25.7416 38.4333 23.4166 38.9 20.95 38.9ZM0.549973 8.59997C0.249973 8.29997 0.108306 7.94997 0.124973 7.54997C0.14164 7.14997 0.299973 6.79997 0.599973 6.49997L6.64997 0.649969C6.94997 0.383302 7.30831 0.258302 7.72497 0.274969C8.14164 0.291636 8.48331 0.433302 8.74997 0.699969C9.04997 0.999969 9.19164 1.34997 9.17497 1.74997C9.15831 2.14997 8.99997 2.49997 8.69997 2.79997L2.64997 8.64997C2.34997 8.91664 1.99164 9.04164 1.57497 9.02497C1.15831 9.0083 0.81664 8.86664 0.549973 8.59997ZM41.35 8.59997C41.0833 8.86664 40.7416 9.0083 40.325 9.02497C39.9083 9.04164 39.55 8.91664 39.25 8.64997L33.2 2.79997C32.9 2.5333 32.7416 2.19164 32.725 1.77497C32.7083 1.3583 32.85 0.999969 33.15 0.699969C33.4166 0.433302 33.7583 0.291636 34.175 0.274969C34.5916 0.258302 34.95 0.383302 35.25 0.649969L41.3 6.49997C41.6 6.76664 41.7583 7.1083 41.775 7.52497C41.7916 7.94164 41.65 8.29997 41.35 8.59997Z" fill="currentColor"/>
</svg>
