<svg width="20" height="20" viewBox="0 0 20 20" fill="none" xmlns="http://www.w3.org/2000/svg">
<path fill-rule="evenodd" clip-rule="evenodd" d="M15.8334 1.66669H4.16675C3.93064 1.66669 3.73272 1.74655 3.573 1.90627C3.41328 2.06599 3.33341 2.26391 3.33341 2.50002C3.33341 2.73613 3.41328 2.93405 3.573 3.09377C3.73272 3.25349 3.93064 3.33335 4.16675 3.33335H15.8334C16.0695 3.33335 16.2674 3.25349 16.4272 3.09377C16.5869 2.93405 16.6667 2.73613 16.6667 2.50002C16.6667 2.26391 16.5869 2.06599 16.4272 1.90627C16.2674 1.74655 16.0695 1.66669 15.8334 1.66669ZM15.8334 16.6667H4.16675C3.93064 16.6667 3.73272 16.7465 3.573 16.9063C3.41328 17.066 3.33341 17.2639 3.33341 17.5C3.33341 17.7361 3.41328 17.934 3.573 18.0938C3.73272 18.2535 3.93064 18.3334 4.16675 18.3334H15.8334C16.0695 18.3334 16.2674 18.2535 16.4272 18.0938C16.5869 17.934 16.6667 17.7361 16.6667 17.5C16.6667 17.2639 16.5869 17.066 16.4272 16.9063C16.2674 16.7465 16.0695 16.6667 15.8334 16.6667ZM2.15633 15.3438C2.48272 15.6702 2.87508 15.8334 3.33341 15.8334H16.6667C17.1251 15.8334 17.5174 15.6702 17.8438 15.3438C18.1702 15.0174 18.3334 14.625 18.3334 14.1667V5.83335C18.3334 5.37502 18.1702 4.98266 17.8438 4.65627C17.5174 4.32988 17.1251 4.16669 16.6667 4.16669H3.33341C2.87508 4.16669 2.48272 4.32988 2.15633 4.65627C1.82994 4.98266 1.66675 5.37502 1.66675 5.83335V14.1667C1.66675 14.625 1.82994 15.0174 2.15633 15.3438ZM4.40633 8.09377C4.24661 7.93405 4.16675 7.73613 4.16675 7.50002C4.16675 7.26391 4.24661 7.06599 4.40633 6.90627C4.56605 6.74655 4.76397 6.66669 5.00008 6.66669C5.23619 6.66669 5.43411 6.74655 5.59383 6.90627C5.75355 7.06599 5.83341 7.26391 5.83341 7.50002C5.83341 7.73613 5.75355 7.93405 5.59383 8.09377C5.43411 8.25349 5.23619 8.33335 5.00008 8.33335C4.76397 8.33335 4.56605 8.25349 4.40633 8.09377ZM4.40633 10.5938C4.24661 10.434 4.16675 10.2361 4.16675 10C4.16675 9.76391 4.24661 9.56599 4.40633 9.40627C4.56605 9.24655 4.76397 9.16669 5.00008 9.16669C5.23619 9.16669 5.43411 9.24655 5.59383 9.40627C5.75355 9.56599 5.83341 9.76391 5.83341 10C5.83341 10.2361 5.75355 10.434 5.59383 10.5938C5.43411 10.7535 5.23619 10.8334 5.00008 10.8334C4.76397 10.8334 4.56605 10.7535 4.40633 10.5938ZM4.16675 12.5C4.16675 12.7361 4.24661 12.934 4.40633 13.0938C4.56605 13.2535 4.76397 13.3334 5.00008 13.3334C5.23619 13.3334 5.43411 13.2535 5.59383 13.0938C5.75355 12.934 5.83341 12.7361 5.83341 12.5C5.83341 12.2639 5.75355 12.066 5.59383 11.9063C5.43411 11.7465 5.23619 11.6667 5.00008 11.6667C4.76397 11.6667 4.56605 11.7465 4.40633 11.9063C4.24661 12.066 4.16675 12.2639 4.16675 12.5ZM7.41675 7.50002C7.41675 7.26391 7.5046 7.06599 7.68029 6.90627C7.85598 6.74655 8.07369 6.66669 8.33341 6.66669L14.9167 6.66669C15.1765 6.66669 15.3942 6.74655 15.5699 6.90627C15.7456 7.06599 15.8334 7.26391 15.8334 7.50002V12.5C15.8334 12.7361 15.7456 12.934 15.5699 13.0938C15.3942 13.2535 15.1765 13.3334 14.9167 13.3334L8.33341 13.3334C8.07369 13.3334 7.85598 13.2535 7.68029 13.0938C7.50459 12.934 7.41675 12.7361 7.41675 12.5L7.41675 7.50002Z" fill="currentColor"/>
</svg>
